<?xml version="1.0" standalone="no"?>
<!DOCTYPE svg PUBLIC "-//W3C//DTD SVG 20010904//EN"
 "http://www.w3.org/TR/2001/REC-SVG-20010904/DTD/svg10.dtd">
<svg version="1.0" xmlns="http://www.w3.org/2000/svg"
 width="100.000000pt" height="100.000000pt" viewBox="0 0 100.000000 100.000000"
 preserveAspectRatio="xMidYMid meet">
<metadata>
Created by potrace 1.11, written by Peter Selinger 2001-2013
</metadata>
<g transform="translate(0.000000,100.000000) scale(0.100000,-0.100000)"
fill="#000000" stroke="none">
<path d="M370 477 c0 -15 4 -27 9 -27 6 0 8 10 6 21 -6 33 -15 36 -15 6z"/>
<path d="M440 475 c0 -16 6 -25 16 -25 8 0 12 5 9 10 -3 6 -1 10 5 10 7 0 5 6
-4 15 -20 21 -26 19 -26 -10z"/>
<path d="M561 478 c-1 -22 4 -28 19 -28 11 0 23 0 28 -1 4 0 8 7 10 15 2 11
-4 16 -21 16 -14 0 -28 6 -30 13 -3 6 -6 0 -6 -15z"/>
<path d="M681 483 c-10 -11 -10 -18 -2 -26 14 -14 23 -4 19 21 -3 18 -5 18
-17 5z"/>
<path d="M502 470 c0 -14 2 -19 5 -12 2 6 2 18 0 25 -3 6 -5 1 -5 -13z"/>
<path d="M110 466 c0 -9 7 -16 16 -16 17 0 14 22 -4 28 -7 2 -12 -3 -12 -12z"/>
<path d="M160 465 c0 -8 5 -15 10 -15 6 0 10 6 10 13 0 8 3 8 9 -2 5 -8 16
-11 26 -7 13 5 16 2 11 -11 -5 -13 -4 -15 4 -7 6 6 8 18 4 28 -5 14 -9 14 -22
4 -12 -10 -14 -10 -8 0 5 8 -1 12 -18 12 -16 0 -26 -6 -26 -15z"/>
<path d="M254 473 c15 -4 16 -7 5 -14 -11 -7 -10 -9 4 -9 24 0 16 24 -9 27
-18 2 -18 2 0 -4z"/>
<path d="M290 466 c0 -9 5 -16 10 -16 6 0 10 4 10 9 0 6 -4 13 -10 16 -5 3
-10 -1 -10 -9z"/>
<path d="M329 472 c11 -8 11 -10 0 -15 -10 -4 -8 -6 4 -6 21 -1 18 21 -4 27
-12 3 -12 2 0 -6z"/>
<path d="M409 472 c11 -8 11 -10 0 -15 -10 -4 -8 -6 4 -6 21 -1 18 21 -4 27
-12 3 -12 2 0 -6z"/>
<path d="M530 466 c0 -9 5 -16 10 -16 6 0 10 4 10 9 0 6 -4 13 -10 16 -5 3
-10 -1 -10 -9z"/>
<path d="M632 468 c2 -6 11 -13 19 -16 12 -3 12 -2 0 6 -11 8 -11 10 0 15 10
4 8 6 -4 6 -10 1 -17 -4 -15 -11z"/>
<path d="M720 465 c0 -8 5 -15 10 -15 6 0 10 7 10 15 0 8 -4 15 -10 15 -5 0
-10 -7 -10 -15z"/>
<path d="M750 465 c0 -8 4 -15 9 -15 5 0 11 7 15 15 3 9 0 15 -9 15 -8 0 -15
-7 -15 -15z"/>
<path d="M786 473 c-11 -11 -7 -23 8 -23 8 0 17 6 19 13 4 9 6 9 6 -1 1 -7 6
-10 13 -6 8 5 9 1 4 -12 -5 -14 -4 -16 4 -8 16 16 3 39 -24 42 -13 1 -26 -1
-30 -5z"/>
</g>
</svg>
